<?xml version="1.0" standalone="no"?>
<!DOCTYPE svg PUBLIC "-//W3C//DTD SVG 20010904//EN"
 "http://www.w3.org/TR/2001/REC-SVG-20010904/DTD/svg10.dtd">
<svg version="1.0" xmlns="http://www.w3.org/2000/svg"
 width="111.000000pt" height="111.000000pt" viewBox="0 0 111.000000 111.000000"
 preserveAspectRatio="xMidYMid meet">
<metadata>
Created by potrace 1.14, written by Peter Selinger 2001-2017
</metadata>
<g transform="translate(0.000000,111.000000) scale(0.100000,-0.100000)"
fill="#000000" stroke="none">
<path d="M704 1083 c-21 -15 -55 -41 -74 -59 -74 -68 -95 -80 -156 -89 -89
-12 -202 -69 -225 -113 -15 -27 -19 -149 -6 -178 7 -17 1 -35 -30 -86 -21 -35
-47 -90 -58 -121 -14 -41 -24 -57 -37 -57 -20 0 -26 -9 -31 -50 -3 -21 -10
-25 -45 -28 l-42 -3 0 -149 0 -150 555 0 555 0 0 275 c0 161 -4 276 -9 280 -6
3 -8 22 -5 43 15 130 16 145 4 152 -7 4 -13 38 -15 81 -2 41 -5 81 -6 89 -1 8
1 27 4 43 3 16 2 25 -4 22 -5 -4 -8 2 -7 12 5 62 -24 103 -73 103 -41 0 -59
-10 -70 -37 -8 -21 -12 -23 -24 -13 -9 7 -13 15 -11 18 15 14 -32 35 -88 38
-54 3 -67 0 -102 -23z m-562 -752 c4 -24 1 -28 -19 -28 -20 0 -23 4 -19 26 2
14 5 27 5 29 1 1 7 2 15 2 7 0 16 -13 18 -29z"/>
</g>
</svg>
